<?xml version="1.0" encoding="UTF-8" standalone="no"?>
<!-- Created with Inkscape (http://www.inkscape.org/) -->

<svg
   width="79.091476mm"
   height="18.94202mm"
   viewBox="0 0 79.091475 18.94202"
   version="1.1"
   id="svg5"
   xmlns="http://www.w3.org/2000/svg"
   xmlns:svg="http://www.w3.org/2000/svg">
  <defs
     id="defs2" />
  <g
     id="layer1"
     transform="translate(-10.03158,-76.228475)">
    <g
       aria-label="Tweasel"
       id="text113"
       style="font-size:22.5778px;line-height:1.25;font-family:Arial;-inkscape-font-specification:Arial;letter-spacing:0px;word-spacing:0px;stroke-width:0.264583">
      <g
         id="g1701"
         transform="translate(-12.619683,23.972444)">
        <path
           d="m 27.343579,69.655876 c 0.609601,0.112889 1.309513,0.135467 1.806224,0.135467 0.496712,0 1.174046,-0.02258 1.806224,-0.135467 V 58.886265 c 0,-0.6096 -0.02258,-1.038579 -0.02258,-1.670757 h 0.02258 c 0.338667,0 1.083735,0.02258 1.422402,0.02258 h 0.654756 c 1.309513,0 1.896535,-0.428978 1.896535,-1.625602 0,-0.451556 -0.06773,-1.016001 -0.180622,-1.377246 H 23.573087 c -0.112889,0.541867 -0.135467,1.106312 -0.135467,1.512713 0,0.4064 0.02258,0.948268 0.135467,1.490135 H 25.8986 c 0.338667,0 1.106312,-0.02258 1.444979,-0.02258 z"
           style="font-weight:bold;font-family:Signika;-inkscape-font-specification:'Signika Bold';fill:#214192"
           id="path1679" />
        <path
           d="m 35.719936,68.143164 c 0.293512,1.354668 0.92569,1.648179 2.257781,1.648179 0.835378,0 1.94169,-0.04516 2.66418,-0.135467 l 0.632178,-3.928537 c 0.158045,-1.12889 0.406401,-2.686758 0.587023,-4.222049 h 0.135467 c 0.180622,1.557868 0.4064,3.138314 0.587023,4.267204 l 0.361245,2.415825 c 0.2032,1.377246 0.880534,1.603024 2.235202,1.603024 0.812801,0 1.873957,-0.02258 2.573869,-0.135467 l 2.641603,-10.8825 -0.112889,-0.225778 c -0.496712,-0.248356 -1.377246,-0.293511 -1.85138,-0.293511 -0.428978,0 -0.970845,0.04516 -1.354668,0.158044 l -1.016001,4.921961 c -0.270933,1.399824 -0.451556,2.686758 -0.6096,3.725337 -0.135467,0 -0.158045,-0.04516 -0.180623,-0.2032 l -1.264357,-8.353786 c -0.541867,-0.112889 -1.648179,-0.158045 -2.099735,-0.158045 -0.428978,0 -1.467557,0.04516 -2.032002,0.158045 l -1.241779,8.556986 c -0.135467,0 -0.158045,-0.04516 -0.180623,-0.2032 -0.06773,-0.767645 -0.293511,-2.05458 -0.587022,-3.522137 l -0.699912,-3.635026 c -0.203201,-0.970845 -0.541868,-1.512713 -1.670758,-1.512713 -0.632178,0 -1.286934,0.158045 -1.964268,0.406401 z"
           style="font-weight:bold;font-family:Signika;-inkscape-font-specification:'Signika Bold';fill:#214192"
           id="path1681" />
        <path
           d="m 60.442652,65.162894 c 0.225778,-0.745068 0.293512,-1.33209 0.293512,-2.325514 0,-2.731914 -1.715913,-4.786493 -4.696183,-4.786493 -3.58987,0 -5.057427,2.641602 -5.057427,6.05085 0,2.98027 1.061156,5.892806 5.034849,5.892806 1.580446,0 3.296359,-0.474134 4.425249,-1.286934 -0.09031,-0.699912 -0.4064,-1.557869 -0.92569,-2.077158 -0.925689,0.361245 -1.919113,0.677334 -2.935114,0.677334 -1.490135,0 -1.919113,-0.92569 -2.032002,-2.144891 z m -4.425249,-4.605872 c 1.061157,0 1.490135,0.880535 1.490135,1.919114 v 0.248355 h -2.98027 c 0.09031,-1.467557 0.496712,-2.167469 1.490135,-2.167469 z"
           style="font-weight:bold;font-family:Signika;-inkscape-font-specification:'Signika Bold';fill:#214192"
           id="path1683" />
        <path
           d="m 72.454036,68.030275 c -0.451556,-0.31609 -0.632178,-0.812801 -0.632178,-1.467558 v -4.583293 c 0,-2.867381 -2.05458,-3.860804 -4.018849,-3.860804 -1.467557,0 -3.657604,0.383823 -5.170316,0.993423 0.09031,0.880534 0.361245,1.873958 0.857956,2.46098 1.174046,-0.361244 2.348091,-0.722489 3.318937,-0.722489 1.016001,0 1.467557,0.474134 1.467557,1.422401 v 0.428979 c -0.587023,-0.04516 -1.196623,-0.04516 -1.603024,-0.04516 -2.325513,0 -4.470404,1.196623 -4.470404,3.905959 0,1.625602 1.106312,3.431826 3.431825,3.431826 1.467557,0 2.506136,-0.6096 3.296359,-1.354668 0.496712,0.654756 1.286935,1.174046 2.438403,1.196624 0.451556,-0.338667 0.948267,-1.196624 1.083734,-1.806224 z m -5.779917,-0.632179 c -0.632178,0 -1.038579,-0.451556 -1.038579,-1.061157 0,-0.857956 0.406401,-1.444979 1.422402,-1.444979 0.316089,0 0.767645,0.02258 1.219201,0.04516 v 1.806224 C 67.757854,67.172322 67.193409,67.3981 66.674119,67.3981 Z"
           style="font-weight:bold;font-family:Signika;-inkscape-font-specification:'Signika Bold';fill:#214192"
           id="path1685" />
        <path
           d="m 73.560361,68.888231 c 1.038579,0.587023 2.731914,1.106312 4.492982,1.106312 2.754492,0 4.560716,-1.422401 4.560716,-3.680181 0,-1.919113 -1.286935,-3.025426 -3.002848,-3.635026 l -1.399823,-0.496712 c -0.609601,-0.225778 -0.857957,-0.474134 -0.857957,-0.857956 0,-0.406401 0.316089,-0.72249 0.92569,-0.72249 1.083735,0 2.212625,0.428978 3.160892,0.857956 0.564445,-0.428978 1.016001,-1.625601 0.970846,-2.46098 -0.993424,-0.496711 -2.799648,-0.948267 -4.154316,-0.948267 -2.66418,0 -4.380093,1.444979 -4.380093,3.725337 0,1.828802 1.241779,2.799647 2.822225,3.38667 l 1.241779,0.474134 c 0.745067,0.248355 1.038579,0.587022 1.038579,1.016001 0,0.451556 -0.451556,0.790223 -1.309513,0.790223 -0.903112,0 -2.144891,-0.428979 -3.138314,-0.948268 -0.519289,0.541867 -0.948267,1.625602 -0.970845,2.393247 z"
           style="font-weight:bold;font-family:Signika;-inkscape-font-specification:'Signika Bold';fill:#214192"
           id="path1687" />
        <path
           d="m 93.248221,65.162894 c 0.225778,-0.745068 0.293511,-1.33209 0.293511,-2.325514 0,-2.731914 -1.715913,-4.786493 -4.696182,-4.786493 -3.589871,0 -5.057428,2.641602 -5.057428,6.05085 0,2.98027 1.061157,5.892806 5.03485,5.892806 1.580446,0 3.296359,-0.474134 4.425249,-1.286934 -0.09031,-0.699912 -0.406401,-1.557869 -0.92569,-2.077158 -0.92569,0.361245 -1.919113,0.677334 -2.935114,0.677334 -1.490135,0 -1.919113,-0.92569 -2.032002,-2.144891 z m -4.425249,-4.605872 c 1.061157,0 1.490135,0.880535 1.490135,1.919114 v 0.248355 h -2.98027 c 0.09031,-1.467557 0.496712,-2.167469 1.490135,-2.167469 z"
           style="font-weight:bold;font-family:Signika;-inkscape-font-specification:'Signika Bold';fill:#214192"
           id="path1689" />
        <path
           d="m 100.08929,67.082007 c -0.722487,0 -0.993421,-0.383823 -0.993421,-1.061157 V 55.160928 c 0,-1.580446 -0.519289,-2.122313 -1.919113,-2.122313 H 95.79951 l -0.135467,0.158044 v 13.433792 c 0,2.144891 0.767646,3.138314 2.799648,3.138314 0.857956,0 1.761069,-0.112889 2.438399,-0.225778 0.0677,-0.225778 0.0677,-0.519289 0.0677,-0.790223 0,-0.564445 -0.0903,-1.174046 -0.27094,-1.670757 z"
           style="font-weight:bold;font-family:Signika;-inkscape-font-specification:'Signika Bold';fill:#214192"
           id="path1691" />
      </g>
    </g>
  </g>
</svg>
